<svg width="65" height="66" viewBox="0 0 65 66" fill="none" xmlns="http://www.w3.org/2000/svg">
<g clip-path="url(#clip0_188_3062)">
<path d="M38.8965 7.02887L39.7168 33.585L61.5066 19.6045L38.8965 7.02887Z" fill="#333333"/>
<path d="M61.3523 47.4108V19.5005L30.1289 39.6V66.0002H31.1799" fill="#494949"/>
<path d="M4.71066 46.3573L24.693 33.536L25.4452 57.8897L4.71066 46.3573Z" fill="url(#paint0_linear_188_3062)"/>
<path d="M4.71066 46.3573L24.693 33.536L25.4452 57.8897L4.71066 46.3573Z" fill="url(#paint1_linear_188_3062)"/>
<path d="M4.71066 46.3573L24.693 33.536L25.4452 57.8897L4.71066 46.3573Z" stroke="url(#paint2_linear_188_3062)" stroke-width="1.25"/>
<path d="M4.71066 46.3573L24.693 33.536L25.4452 57.8897L4.71066 46.3573Z" stroke="url(#paint3_linear_188_3062)" stroke-width="1.25"/>
<path d="M3.64746 18.5892V46.4993L34.8712 26.4261V0H33.8201" fill="url(#paint4_linear_188_3062)"/>
<path d="M3.64746 18.5892V46.4993L34.8712 26.4261V0H33.8201" fill="url(#paint5_linear_188_3062)"/>
</g>
<defs>
<linearGradient id="paint0_linear_188_3062" x1="3.49365" y1="45.6928" x2="26.1039" y2="45.6928" gradientUnits="userSpaceOnUse">
<stop stop-color="#00AAFF"/>
<stop offset="1" stop-color="#8636F8"/>
</linearGradient>
<linearGradient id="paint1_linear_188_3062" x1="14.7988" y1="58.9712" x2="14.7988" y2="32.4144" gradientUnits="userSpaceOnUse">
<stop stop-color="white" stop-opacity="0.6"/>
<stop offset="0.1085" stop-color="white" stop-opacity="0.455"/>
<stop offset="0.4332" stop-color="white" stop-opacity="0.216"/>
<stop offset="0.6639" stop-color="white" stop-opacity="0.06"/>
<stop offset="0.775" stop-color="white" stop-opacity="0"/>
</linearGradient>
<linearGradient id="paint2_linear_188_3062" x1="3.49365" y1="45.6928" x2="26.1039" y2="45.6928" gradientUnits="userSpaceOnUse">
<stop stop-color="#00AAFF"/>
<stop offset="1" stop-color="#8636F8"/>
</linearGradient>
<linearGradient id="paint3_linear_188_3062" x1="14.7988" y1="58.9712" x2="14.7988" y2="32.4144" gradientUnits="userSpaceOnUse">
<stop stop-color="white" stop-opacity="0.6"/>
<stop offset="0.1085" stop-color="white" stop-opacity="0.455"/>
<stop offset="0.4332" stop-color="white" stop-opacity="0.216"/>
<stop offset="0.6639" stop-color="white" stop-opacity="0.06"/>
<stop offset="0.775" stop-color="white" stop-opacity="0"/>
</linearGradient>
<linearGradient id="paint4_linear_188_3062" x1="2.3527" y1="28.684" x2="36.7741" y2="26.1824" gradientUnits="userSpaceOnUse">
<stop offset="0.0226" stop-color="#8636F8"/>
<stop offset="0.3484" stop-color="#F020B3"/>
<stop offset="0.6742" stop-color="#F8475E"/>
<stop offset="1" stop-color="#FF9421"/>
</linearGradient>
<linearGradient id="paint5_linear_188_3062" x1="19.2593" y1="46.4993" x2="19.2593" y2="0" gradientUnits="userSpaceOnUse">
<stop stop-color="white" stop-opacity="0.6"/>
<stop offset="0.0842" stop-color="white" stop-opacity="0.455"/>
<stop offset="0.367" stop-color="white" stop-opacity="0.216"/>
<stop offset="0.568" stop-color="white" stop-opacity="0.06"/>
<stop offset="0.6648" stop-color="white" stop-opacity="0"/>
</linearGradient>
<clipPath id="clip0_188_3062">
<rect width="65" height="66" fill="white"/>
</clipPath>
</defs>
</svg>
